<?xml version="1.0" encoding="UTF-8"?>
<svg width="677px" height="240px" viewBox="0 0 677 240" version="1.1" xmlns="http://www.w3.org/2000/svg" xmlns:xlink="http://www.w3.org/1999/xlink">
    <!-- Generator: Sketch 59.1 (86144) - https://sketch.com -->
    <title>stars</title>
    <desc>Created with Sketch.</desc>
    <g id="stars" stroke="none" stroke-width="1" fill="none" fill-rule="evenodd">
        <polygon id="Star" fill="#FFFFFF" points="36 27 34.8244295 27.618034 35.0489435 26.309017 34.097887 25.381966 35.4122147 25.190983 36 24 36.5877853 25.190983 37.902113 25.381966 36.9510565 26.309017 37.1755705 27.618034"></polygon>
        <polygon id="Star-Copy-10" fill="#FFFFFF" points="88 12 86.8244295 12.618034 87.0489435 11.309017 86.097887 10.381966 87.4122147 10.190983 88 9 88.5877853 10.190983 89.902113 10.381966 88.9510565 11.309017 89.1755705 12.618034"></polygon>
        <polygon id="Star-Copy-4" fill="#FFFFFF" points="47 59 45.8244295 59.618034 46.0489435 58.309017 45.097887 57.381966 46.4122147 57.190983 47 56 47.5877853 57.190983 48.902113 57.381966 47.9510565 58.309017 48.1755705 59.618034"></polygon>
        <polygon id="Star-Copy" fill="#FFFFFF" points="98 79 96.8244295 79.618034 97.0489435 78.309017 96.097887 77.381966 97.4122147 77.190983 98 76 98.5877853 77.190983 99.902113 77.381966 98.9510565 78.309017 99.1755705 79.618034"></polygon>
        <polygon id="Star-Copy-11" fill="#FFFFFF" points="72 114 70.8244295 114.618034 71.0489435 113.309017 70.097887 112.381966 71.4122147 112.190983 72 111 72.5877853 112.190983 73.902113 112.381966 72.9510565 113.309017 73.1755705 114.618034"></polygon>
        <polygon id="Star-Copy-7" fill="#FFFFFF" points="120 107 118.824429 107.618034 119.048943 106.309017 118.097887 105.381966 119.412215 105.190983 120 104 120.587785 105.190983 121.902113 105.381966 120.951057 106.309017 121.175571 107.618034"></polygon>
        <polygon id="Star-Copy-12" fill="#FFFFFF" points="142 152 140.824429 152.618034 141.048943 151.309017 140.097887 150.381966 141.412215 150.190983 142 149 142.587785 150.190983 143.902113 150.381966 142.951057 151.309017 143.175571 152.618034"></polygon>
        <polygon id="Star-Copy-13" fill="#FFFFFF" points="181 124 179.824429 124.618034 180.048943 123.309017 179.097887 122.381966 180.412215 122.190983 181 121 181.587785 122.190983 182.902113 122.381966 181.951057 123.309017 182.175571 124.618034"></polygon>
        <polygon id="Star-Copy-14" fill="#FFFFFF" points="185 114 183.824429 114.618034 184.048943 113.309017 183.097887 112.381966 184.412215 112.190983 185 111 185.587785 112.190983 186.902113 112.381966 185.951057 113.309017 186.175571 114.618034"></polygon>
        <polygon id="Star-Copy-15" fill="#FFFFFF" points="218 140 216.824429 140.618034 217.048943 139.309017 216.097887 138.381966 217.412215 138.190983 218 137 218.587785 138.190983 219.902113 138.381966 218.951057 139.309017 219.175571 140.618034"></polygon>
        <polygon id="Star-Copy-8" fill="#FFFFFF" points="158 65 156.824429 65.618034 157.048943 64.309017 156.097887 63.381966 157.412215 63.190983 158 62 158.587785 63.190983 159.902113 63.381966 158.951057 64.309017 159.175571 65.618034"></polygon>
        <polygon id="Star-Copy-9" fill="#FFFFFF" transform="translate(142.000000, 22.000000) scale(-1, 1) translate(-142.000000, -22.000000) " points="142 24.5 139.061074 26.045085 139.622359 22.7725425 137.244717 20.454915 140.530537 19.9774575 142 17 143.469463 19.9774575 146.755283 20.454915 144.377641 22.7725425 144.938926 26.045085"></polygon>
        <polygon id="Star-Copy-6" fill="#FFFFFF" points="30 69 28.8244295 69.618034 29.0489435 68.309017 28.097887 67.381966 29.4122147 67.190983 30 66 30.5877853 67.190983 31.902113 67.381966 30.9510565 68.309017 31.1755705 69.618034"></polygon>
        <polygon id="Star-Copy-2" fill="#FFFFFF" points="16 12 14.8244295 12.618034 15.0489435 11.309017 14.097887 10.381966 15.4122147 10.190983 16 9 16.5877853 10.190983 17.902113 10.381966 16.9510565 11.309017 17.1755705 12.618034"></polygon>
        <polygon id="Star" fill="#FFFFFF" points="94 38.5 91.0610737 40.045085 91.6223587 36.7725425 89.2447174 34.454915 92.5305369 33.9774575 94 31 95.4694631 33.9774575 98.7552826 34.454915 96.3776413 36.7725425 96.9389263 40.045085"></polygon>
        <polygon id="Star-Copy-3" fill="#FFFFFF" points="58 148.5 55.0610737 150.045085 55.6223587 146.772542 53.2447174 144.454915 56.5305369 143.977458 58 141 59.4694631 143.977458 62.7552826 144.454915 60.3776413 146.772542 60.9389263 150.045085"></polygon>
        <polygon id="Star-Copy-5" fill="#FFFFFF" points="230 101.5 227.061074 103.045085 227.622359 99.7725425 225.244717 97.454915 228.530537 96.9774575 230 94 231.469463 96.9774575 234.755283 97.454915 232.377641 99.7725425 232.938926 103.045085"></polygon>
        <polygon id="Star" fill="#FFFFFF" points="12 112 10.8244295 112.618034 11.0489435 111.309017 10.097887 110.381966 11.4122147 110.190983 12 109 12.5877853 110.190983 13.902113 110.381966 12.9510565 111.309017 13.1755705 112.618034"></polygon>
        <polygon id="Star-Copy-10" fill="#FFFFFF" points="64 97 62.8244295 97.618034 63.0489435 96.309017 62.097887 95.381966 63.4122147 95.190983 64 94 64.5877853 95.190983 65.902113 95.381966 64.9510565 96.309017 65.1755705 97.618034"></polygon>
        <polygon id="Star-Copy-4" fill="#FFFFFF" points="23 144 21.8244295 144.618034 22.0489435 143.309017 21.097887 142.381966 22.4122147 142.190983 23 141 23.5877853 142.190983 24.902113 142.381966 23.9510565 143.309017 24.1755705 144.618034"></polygon>
        <polygon id="Star-Copy" fill="#FFFFFF" points="74 164 72.8244295 164.618034 73.0489435 163.309017 72.097887 162.381966 73.4122147 162.190983 74 161 74.5877853 162.190983 75.902113 162.381966 74.9510565 163.309017 75.1755705 164.618034"></polygon>
        <polygon id="Star-Copy-11" fill="#FFFFFF" points="48 199 46.8244295 199.618034 47.0489435 198.309017 46.097887 197.381966 47.4122147 197.190983 48 196 48.5877853 197.190983 49.902113 197.381966 48.9510565 198.309017 49.1755705 199.618034"></polygon>
        <polygon id="Star-Copy-7" fill="#FFFFFF" points="96 192 94.8244295 192.618034 95.0489435 191.309017 94.097887 190.381966 95.4122147 190.190983 96 189 96.5877853 190.190983 97.902113 190.381966 96.9510565 191.309017 97.1755705 192.618034"></polygon>
        <polygon id="Star-Copy-12" fill="#FFFFFF" points="118 237 116.824429 237.618034 117.048943 236.309017 116.097887 235.381966 117.412215 235.190983 118 234 118.587785 235.190983 119.902113 235.381966 118.951057 236.309017 119.175571 237.618034"></polygon>
        <polygon id="Star-Copy-13" fill="#FFFFFF" points="157 209 155.824429 209.618034 156.048943 208.309017 155.097887 207.381966 156.412215 207.190983 157 206 157.587785 207.190983 158.902113 207.381966 157.951057 208.309017 158.175571 209.618034"></polygon>
        <polygon id="Star-Copy-14" fill="#FFFFFF" points="161 199 159.824429 199.618034 160.048943 198.309017 159.097887 197.381966 160.412215 197.190983 161 196 161.587785 197.190983 162.902113 197.381966 161.951057 198.309017 162.175571 199.618034"></polygon>
        <polygon id="Star-Copy-15" fill="#FFFFFF" points="194 225 192.824429 225.618034 193.048943 224.309017 192.097887 223.381966 193.412215 223.190983 194 222 194.587785 223.190983 195.902113 223.381966 194.951057 224.309017 195.175571 225.618034"></polygon>
        <polygon id="Star-Copy-8" fill="#FFFFFF" points="134 150 132.824429 150.618034 133.048943 149.309017 132.097887 148.381966 133.412215 148.190983 134 147 134.587785 148.190983 135.902113 148.381966 134.951057 149.309017 135.175571 150.618034"></polygon>
        <polygon id="Star-Copy-9" fill="#FFFFFF" transform="translate(118.000000, 107.000000) scale(-1, 1) translate(-118.000000, -107.000000) " points="118 109.5 115.061074 111.045085 115.622359 107.772542 113.244717 105.454915 116.530537 104.977458 118 102 119.469463 104.977458 122.755283 105.454915 120.377641 107.772542 120.938926 111.045085"></polygon>
        <polygon id="Star-Copy-6" fill="#FFFFFF" points="6 154 4.8244295 154.618034 5.04894348 153.309017 4.09788697 152.381966 5.41221475 152.190983 6 151 6.58778525 152.190983 7.90211303 152.381966 6.95105652 153.309017 7.1755705 154.618034"></polygon>
        <polygon id="Star-Copy-2" fill="#FFFFFF" points="2 215 0.824429495 215.618034 1.04894348 214.309017 0.0978869674 213.381966 1.41221475 213.190983 2 212 2.58778525 213.190983 3.90211303 213.381966 2.95105652 214.309017 3.1755705 215.618034"></polygon>
        <polygon id="Star-Copy-3" fill="#FFFFFF" points="34 233.5 31.0610737 235.045085 31.6223587 231.772542 29.2447174 229.454915 32.5305369 228.977458 34 226 35.4694631 228.977458 38.7552826 229.454915 36.3776413 231.772542 36.9389263 235.045085"></polygon>
        <polygon id="Star-Copy-5" fill="#FFFFFF" points="206 186.5 203.061074 188.045085 203.622359 184.772542 201.244717 182.454915 204.530537 181.977458 206 179 207.469463 181.977458 210.755283 182.454915 208.377641 184.772542 208.938926 188.045085"></polygon>
        <polygon id="Star" fill="#FFFFFF" points="204 37 202.824429 37.618034 203.048943 36.309017 202.097887 35.381966 203.412215 35.190983 204 34 204.587785 35.190983 205.902113 35.381966 204.951057 36.309017 205.175571 37.618034"></polygon>
        <polygon id="Star-Copy-10" fill="#FFFFFF" points="347 8 345.824429 8.61803399 346.048943 7.30901699 345.097887 6.38196601 346.412215 6.19098301 347 5 347.587785 6.19098301 348.902113 6.38196601 347.951057 7.30901699 348.175571 8.61803399"></polygon>
        <polygon id="Star-Copy-4" fill="#FFFFFF" points="246 49 244.824429 49.618034 245.048943 48.309017 244.097887 47.381966 245.412215 47.190983 246 46 246.587785 47.190983 247.902113 47.381966 246.951057 48.309017 247.175571 49.618034"></polygon>
        <polygon id="Star-Copy" fill="#FFFFFF" points="357 75 355.824429 75.618034 356.048943 74.309017 355.097887 73.381966 356.412215 73.190983 357 72 357.587785 73.190983 358.902113 73.381966 357.951057 74.309017 358.175571 75.618034"></polygon>
        <polygon id="Star-Copy-11" fill="#FFFFFF" points="331 110 329.824429 110.618034 330.048943 109.309017 329.097887 108.381966 330.412215 108.190983 331 107 331.587785 108.190983 332.902113 108.381966 331.951057 109.309017 332.175571 110.618034"></polygon>
        <polygon id="Star-Copy-7" fill="#FFFFFF" points="379 103 377.824429 103.618034 378.048943 102.309017 377.097887 101.381966 378.412215 101.190983 379 100 379.587785 101.190983 380.902113 101.381966 379.951057 102.309017 380.175571 103.618034"></polygon>
        <polygon id="Star-Copy-12" fill="#FFFFFF" points="401 148 399.824429 148.618034 400.048943 147.309017 399.097887 146.381966 400.412215 146.190983 401 145 401.587785 146.190983 402.902113 146.381966 401.951057 147.309017 402.175571 148.618034"></polygon>
        <polygon id="Star-Copy-13" fill="#FFFFFF" points="440 120 438.824429 120.618034 439.048943 119.309017 438.097887 118.381966 439.412215 118.190983 440 117 440.587785 118.190983 441.902113 118.381966 440.951057 119.309017 441.175571 120.618034"></polygon>
        <polygon id="Star-Copy-14" fill="#FFFFFF" points="473 39 471.824429 39.618034 472.048943 38.309017 471.097887 37.381966 472.412215 37.190983 473 36 473.587785 37.190983 474.902113 37.381966 473.951057 38.309017 474.175571 39.618034"></polygon>
        <polygon id="Star-Copy-15" fill="#FFFFFF" points="477 136 475.824429 136.618034 476.048943 135.309017 475.097887 134.381966 476.412215 134.190983 477 133 477.587785 134.190983 478.902113 134.381966 477.951057 135.309017 478.175571 136.618034"></polygon>
        <polygon id="Star-Copy-8" fill="#FFFFFF" points="417 61 415.824429 61.618034 416.048943 60.309017 415.097887 59.381966 416.412215 59.190983 417 58 417.587785 59.190983 418.902113 59.381966 417.951057 60.309017 418.175571 61.618034"></polygon>
        <polygon id="Star-Copy-9" fill="#FFFFFF" transform="translate(401.000000, 18.000000) scale(-1, 1) translate(-401.000000, -18.000000) " points="401 20.5 398.061074 22.045085 398.622359 18.7725425 396.244717 16.454915 399.530537 15.9774575 401 13 402.469463 15.9774575 405.755283 16.454915 403.377641 18.7725425 403.938926 22.045085"></polygon>
        <polygon id="Star-Copy-6" fill="#FFFFFF" points="289 65 287.824429 65.618034 288.048943 64.309017 287.097887 63.381966 288.412215 63.190983 289 62 289.587785 63.190983 290.902113 63.381966 289.951057 64.309017 290.175571 65.618034"></polygon>
        <polygon id="Star-Copy-2" fill="#FFFFFF" points="261 12 259.824429 12.618034 260.048943 11.309017 259.097887 10.381966 260.412215 10.190983 261 9 261.587785 10.190983 262.902113 10.381966 261.951057 11.309017 262.175571 12.618034"></polygon>
        <polygon id="Star" fill="#FFFFFF" points="362 45.5 359.061074 47.045085 359.622359 43.7725425 357.244717 41.454915 360.530537 40.9774575 362 38 363.469463 40.9774575 366.755283 41.454915 364.377641 43.7725425 364.938926 47.045085"></polygon>
        <polygon id="Star-Copy-3" fill="#FFFFFF" points="317 144.5 314.061074 146.045085 314.622359 142.772542 312.244717 140.454915 315.530537 139.977458 317 137 318.469463 139.977458 321.755283 140.454915 319.377641 142.772542 319.938926 146.045085"></polygon>
        <polygon id="Star-Copy-5" fill="#FFFFFF" points="489 97.5 486.061074 99.045085 486.622359 95.7725425 484.244717 93.454915 487.530537 92.9774575 489 90 490.469463 92.9774575 493.755283 93.454915 491.377641 95.7725425 491.938926 99.045085"></polygon>
        <polygon id="Star" fill="#FFFFFF" points="271 108 269.824429 108.618034 270.048943 107.309017 269.097887 106.381966 270.412215 106.190983 271 105 271.587785 106.190983 272.902113 106.381966 271.951057 107.309017 272.175571 108.618034"></polygon>
        <polygon id="Star-Copy-10" fill="#FFFFFF" points="323 93 321.824429 93.618034 322.048943 92.309017 321.097887 91.381966 322.412215 91.190983 323 90 323.587785 91.190983 324.902113 91.381966 323.951057 92.309017 324.175571 93.618034"></polygon>
        <polygon id="Star-Copy-4" fill="#FFFFFF" points="282 140 280.824429 140.618034 281.048943 139.309017 280.097887 138.381966 281.412215 138.190983 282 137 282.587785 138.190983 283.902113 138.381966 282.951057 139.309017 283.175571 140.618034"></polygon>
        <polygon id="Star-Copy" fill="#FFFFFF" points="333 160 331.824429 160.618034 332.048943 159.309017 331.097887 158.381966 332.412215 158.190983 333 157 333.587785 158.190983 334.902113 158.381966 333.951057 159.309017 334.175571 160.618034"></polygon>
        <polygon id="Star-Copy-11" fill="#FFFFFF" points="307 195 305.824429 195.618034 306.048943 194.309017 305.097887 193.381966 306.412215 193.190983 307 192 307.587785 193.190983 308.902113 193.381966 307.951057 194.309017 308.175571 195.618034"></polygon>
        <polygon id="Star-Copy-7" fill="#FFFFFF" points="355 188 353.824429 188.618034 354.048943 187.309017 353.097887 186.381966 354.412215 186.190983 355 185 355.587785 186.190983 356.902113 186.381966 355.951057 187.309017 356.175571 188.618034"></polygon>
        <polygon id="Star-Copy-12" fill="#FFFFFF" points="377 233 375.824429 233.618034 376.048943 232.309017 375.097887 231.381966 376.412215 231.190983 377 230 377.587785 231.190983 378.902113 231.381966 377.951057 232.309017 378.175571 233.618034"></polygon>
        <polygon id="Star-Copy-13" fill="#FFFFFF" points="416 205 414.824429 205.618034 415.048943 204.309017 414.097887 203.381966 415.412215 203.190983 416 202 416.587785 203.190983 417.902113 203.381966 416.951057 204.309017 417.175571 205.618034"></polygon>
        <polygon id="Star-Copy-14" fill="#FFFFFF" points="420 195 418.824429 195.618034 419.048943 194.309017 418.097887 193.381966 419.412215 193.190983 420 192 420.587785 193.190983 421.902113 193.381966 420.951057 194.309017 421.175571 195.618034"></polygon>
        <polygon id="Star-Copy-15" fill="#FFFFFF" points="453 221 451.824429 221.618034 452.048943 220.309017 451.097887 219.381966 452.412215 219.190983 453 218 453.587785 219.190983 454.902113 219.381966 453.951057 220.309017 454.175571 221.618034"></polygon>
        <polygon id="Star-Copy-8" fill="#FFFFFF" points="393 146 391.824429 146.618034 392.048943 145.309017 391.097887 144.381966 392.412215 144.190983 393 143 393.587785 144.190983 394.902113 144.381966 393.951057 145.309017 394.175571 146.618034"></polygon>
        <polygon id="Star-Copy-9" fill="#FFFFFF" transform="translate(377.000000, 103.000000) scale(-1, 1) translate(-377.000000, -103.000000) " points="377 105.5 374.061074 107.045085 374.622359 103.772542 372.244717 101.454915 375.530537 100.977458 377 98 378.469463 100.977458 381.755283 101.454915 379.377641 103.772542 379.938926 107.045085"></polygon>
        <polygon id="Star-Copy-6" fill="#FFFFFF" points="248 156 246.824429 156.618034 247.048943 155.309017 246.097887 154.381966 247.412215 154.190983 248 153 248.587785 154.190983 249.902113 154.381966 248.951057 155.309017 249.175571 156.618034"></polygon>
        <polygon id="Star-Copy-2" fill="#FFFFFF" points="261 211 259.824429 211.618034 260.048943 210.309017 259.097887 209.381966 260.412215 209.190983 261 208 261.587785 209.190983 262.902113 209.381966 261.951057 210.309017 262.175571 211.618034"></polygon>
        <polygon id="Star-Copy-3" fill="#FFFFFF" points="293 229.5 290.061074 231.045085 290.622359 227.772542 288.244717 225.454915 291.530537 224.977458 293 222 294.469463 224.977458 297.755283 225.454915 295.377641 227.772542 295.938926 231.045085"></polygon>
        <polygon id="Star-Copy-5" fill="#FFFFFF" points="465 182.5 462.061074 184.045085 462.622359 180.772542 460.244717 178.454915 463.530537 177.977458 465 175 466.469463 177.977458 469.755283 178.454915 467.377641 180.772542 467.938926 184.045085"></polygon>
        <polygon id="Star" fill="#FFFFFF" points="558 27 556.824429 27.618034 557.048943 26.309017 556.097887 25.381966 557.412215 25.190983 558 24 558.587785 25.190983 559.902113 25.381966 558.951057 26.309017 559.175571 27.618034"></polygon>
        <polygon id="Star-Copy-10" fill="#FFFFFF" points="610 12 608.824429 12.618034 609.048943 11.309017 608.097887 10.381966 609.412215 10.190983 610 9 610.587785 10.190983 611.902113 10.381966 610.951057 11.309017 611.175571 12.618034"></polygon>
        <polygon id="Star-Copy-4" fill="#FFFFFF" points="569 59 567.824429 59.618034 568.048943 58.309017 567.097887 57.381966 568.412215 57.190983 569 56 569.587785 57.190983 570.902113 57.381966 569.951057 58.309017 570.175571 59.618034"></polygon>
        <polygon id="Star-Copy" fill="#FFFFFF" points="620 79 618.824429 79.618034 619.048943 78.309017 618.097887 77.381966 619.412215 77.190983 620 76 620.587785 77.190983 621.902113 77.381966 620.951057 78.309017 621.175571 79.618034"></polygon>
        <polygon id="Star-Copy-11" fill="#FFFFFF" points="594 114 592.824429 114.618034 593.048943 113.309017 592.097887 112.381966 593.412215 112.190983 594 111 594.587785 112.190983 595.902113 112.381966 594.951057 113.309017 595.175571 114.618034"></polygon>
        <polygon id="Star-Copy-7" fill="#FFFFFF" points="642 107 640.824429 107.618034 641.048943 106.309017 640.097887 105.381966 641.412215 105.190983 642 104 642.587785 105.190983 643.902113 105.381966 642.951057 106.309017 643.175571 107.618034"></polygon>
        <polygon id="Star-Copy-12" fill="#FFFFFF" points="664 152 662.824429 152.618034 663.048943 151.309017 662.097887 150.381966 663.412215 150.190983 664 149 664.587785 150.190983 665.902113 150.381966 664.951057 151.309017 665.175571 152.618034"></polygon>
        <polygon id="Star-Copy-9" fill="#FFFFFF" transform="translate(664.000000, 22.000000) scale(-1, 1) translate(-664.000000, -22.000000) " points="664 24.5 661.061074 26.045085 661.622359 22.7725425 659.244717 20.454915 662.530537 19.9774575 664 17 665.469463 19.9774575 668.755283 20.454915 666.377641 22.7725425 666.938926 26.045085"></polygon>
        <polygon id="Star-Copy-6" fill="#FFFFFF" points="552 69 550.824429 69.618034 551.048943 68.309017 550.097887 67.381966 551.412215 67.190983 552 66 552.587785 67.190983 553.902113 67.381966 552.951057 68.309017 553.175571 69.618034"></polygon>
        <polygon id="Star-Copy-2" fill="#FFFFFF" points="538 12 536.824429 12.618034 537.048943 11.309017 536.097887 10.381966 537.412215 10.190983 538 9 538.587785 10.190983 539.902113 10.381966 538.951057 11.309017 539.175571 12.618034"></polygon>
        <polygon id="Star" fill="#FFFFFF" points="625 49.5 622.061074 51.045085 622.622359 47.7725425 620.244717 45.454915 623.530537 44.9774575 625 42 626.469463 44.9774575 629.755283 45.454915 627.377641 47.7725425 627.938926 51.045085"></polygon>
        <polygon id="Star-Copy-3" fill="#FFFFFF" points="580 148.5 577.061074 150.045085 577.622359 146.772542 575.244717 144.454915 578.530537 143.977458 580 141 581.469463 143.977458 584.755283 144.454915 582.377641 146.772542 582.938926 150.045085"></polygon>
        <polygon id="Star" fill="#FFFFFF" points="534 112 532.824429 112.618034 533.048943 111.309017 532.097887 110.381966 533.412215 110.190983 534 109 534.587785 110.190983 535.902113 110.381966 534.951057 111.309017 535.175571 112.618034"></polygon>
        <polygon id="Star-Copy-10" fill="#FFFFFF" points="586 97 584.824429 97.618034 585.048943 96.309017 584.097887 95.381966 585.412215 95.190983 586 94 586.587785 95.190983 587.902113 95.381966 586.951057 96.309017 587.175571 97.618034"></polygon>
        <polygon id="Star-Copy-4" fill="#FFFFFF" points="545 144 543.824429 144.618034 544.048943 143.309017 543.097887 142.381966 544.412215 142.190983 545 141 545.587785 142.190983 546.902113 142.381966 545.951057 143.309017 546.175571 144.618034"></polygon>
        <polygon id="Star-Copy" fill="#FFFFFF" points="596 164 594.824429 164.618034 595.048943 163.309017 594.097887 162.381966 595.412215 162.190983 596 161 596.587785 162.190983 597.902113 162.381966 596.951057 163.309017 597.175571 164.618034"></polygon>
        <polygon id="Star-Copy-11" fill="#FFFFFF" points="570 199 568.824429 199.618034 569.048943 198.309017 568.097887 197.381966 569.412215 197.190983 570 196 570.587785 197.190983 571.902113 197.381966 570.951057 198.309017 571.175571 199.618034"></polygon>
        <polygon id="Star-Copy-7" fill="#FFFFFF" points="618 192 616.824429 192.618034 617.048943 191.309017 616.097887 190.381966 617.412215 190.190983 618 189 618.587785 190.190983 619.902113 190.381966 618.951057 191.309017 619.175571 192.618034"></polygon>
        <polygon id="Star-Copy-8" fill="#FFFFFF" points="656 150 654.824429 150.618034 655.048943 149.309017 654.097887 148.381966 655.412215 148.190983 656 147 656.587785 148.190983 657.902113 148.381966 656.951057 149.309017 657.175571 150.618034"></polygon>
        <polygon id="Star-Copy-9" fill="#FFFFFF" transform="translate(640.000000, 107.000000) scale(-1, 1) translate(-640.000000, -107.000000) " points="640 109.5 637.061074 111.045085 637.622359 107.772542 635.244717 105.454915 638.530537 104.977458 640 102 641.469463 104.977458 644.755283 105.454915 642.377641 107.772542 642.938926 111.045085"></polygon>
        <polygon id="Star-Copy-6" fill="#FFFFFF" points="528 154 526.824429 154.618034 527.048943 153.309017 526.097887 152.381966 527.412215 152.190983 528 151 528.587785 152.190983 529.902113 152.381966 528.951057 153.309017 529.175571 154.618034"></polygon>
        <polygon id="Star-Copy-2" fill="#FFFFFF" points="524 215 522.824429 215.618034 523.048943 214.309017 522.097887 213.381966 523.412215 213.190983 524 212 524.587785 213.190983 525.902113 213.381966 524.951057 214.309017 525.175571 215.618034"></polygon>
        <polygon id="Star-Copy-3" fill="#FFFFFF" points="556 233.5 553.061074 235.045085 553.622359 231.772542 551.244717 229.454915 554.530537 228.977458 556 226 557.469463 228.977458 560.755283 229.454915 558.377641 231.772542 558.938926 235.045085"></polygon>
    </g>
</svg>